<svg xmlns="http://www.w3.org/2000/svg" width="325.36" height="54.82" viewBox="0 0 325.36 54.82">
    <path data-name="Rectangle 11408" transform="translate(290.12 17.79)" style="fill:#e345ff" d="M0 0h14.14v36.2H0z"/>
    <path data-name="Path 19457" d="M52.3 22c-1.77-2.13-4.53-4-9.43-4-9.35 0-16 8-16 18.45s6.67 18.37 16 18.37c4.9 0 7.66-1.84 9.43-4l.33 3.18H66.7V18.69H52.63zm-5.75 21c-3.75 0-6.33-2.66-6.33-6.56s2.58-6.63 6.33-6.63 6.19 2.69 6.19 6.63-2.5 6.48-6.19 6.48z" style="fill:#fff"/>
    <path data-name="Path 19458" d="M95.33 17.89c-5 0-9 1.7-11 4.13L84 18.63H71.14V54h14.14V34.46a4.29 4.29 0 1 1 8.58 0V54H108V30.26c0-7.36-5.16-12.37-12.67-12.37z" style="fill:#fff"/>
    <path data-name="Path 19459" d="M156.75 17.76c-11.24 0-18.67 7.25-18.67 18.34s7.73 18.48 21.1 18.48a30.16 30.16 0 0 0 13.66-3.09l-1.58-10a29.12 29.12 0 0 1-11.42 2.14c-4.35 0-8.29-1.62-8.54-4.35h22.43c2.27-14.75-5.79-21.52-16.98-21.52zm-5.45 14.8a4.91 4.91 0 0 1 5.26-4.56 4.66 4.66 0 0 1 4.72 4.53z" style="fill:#fff"/>
    <path data-name="Path 19460" d="M223.85 17.76c-11.56 0-19.48 7.47-19.48 18.41s7.92 18.41 19.48 18.41 19.48-7.47 19.48-18.41-7.91-18.41-19.48-18.41zm0 25c-3.64 0-6.11-2.69-6.11-6.63s2.47-6.59 6.11-6.59 6.15 2.73 6.15 6.63-2.5 6.63-6.15 6.63z" style="fill:#e345ff"/>
    <path data-name="Path 19461" d="M270.76 17.44c-5 0-7.84 1.81-9.69 3.91V7h-14.14v47.13H261l.33-3.88c1.77 2.18 4.53 4 9.43 4 9.35 0 16-8 16-18.38s-6.65-18.43-16-18.43zm-3.68 25c-3.69 0-6.19-2.65-6.19-6.55s2.5-6.63 6.19-6.63 6.33 2.69 6.33 6.63-2.58 6.52-6.33 6.52z" style="fill:#e345ff"/>
    <path data-name="Path 19462" d="M191.55 37.3v-8.37h9.19v-11h-9.25V7h-13.75v33.63h.08c.39 9.81 6.71 13.35 14.87 13.35h8.2V41.79L196 42c-2.68 0-4.45-1.16-4.45-4.7z" style="fill:#e345ff"/>
    <path data-name="Path 19463" d="M13.81 37.3v-8.62H23V17.62h-9.23V7H0v32.66C0 50.23 6.52 54 15 54h8.2V41.79l-4.9.21c-2.72 0-4.49-1.16-4.49-4.7z" style="fill:#fff"/>
    <path data-name="Path 19464" d="M125.51 37.3v-8.37h9.19v-11h-9.23V7h-13.74v32.66c0 10.57 6.48 14.32 14.92 14.32h8.19V41.79L130 42c-2.72 0-4.49-1.16-4.49-4.7z" style="fill:#fff"/>
    <circle data-name="Ellipse 73" cx="7.06" cy="7.06" r="7.06" transform="translate(290.13)" style="fill:#e345ff"/>
    <circle data-name="Ellipse 74" cx="7.06" cy="7.06" r="7.06" transform="translate(311.24 40.17)" style="fill:#e345ff"/>
</svg>
